<svg width="32" height="32" viewBox="0 0 32 32" fill="none" xmlns="http://www.w3.org/2000/svg">
<mask id="mask0_120666_100" style="mask-type:alpha" maskUnits="userSpaceOnUse" x="0" y="0" width="32" height="32">
<rect width="32" height="32" fill="#D9D9D9"/>
</mask>
<g mask="url(#mask0_120666_100)">
<path d="M9.2288 16.6665L16.4798 23.9179C16.6098 24.0477 16.6778 24.2007 16.6838 24.3769C16.6898 24.5529 16.6192 24.7144 16.4721 24.8615C16.3252 25.0033 16.168 25.0755 16.0005 25.0782C15.8329 25.0807 15.6757 25.0084 15.5288 24.8615L7.42114 16.7539C7.30469 16.6374 7.22302 16.5185 7.17614 16.3972C7.12902 16.2759 7.10547 16.1434 7.10547 15.9999C7.10547 15.8563 7.12902 15.7239 7.17614 15.6025C7.22302 15.4812 7.30469 15.3623 7.42114 15.2459L15.5288 7.13821C15.6535 7.01355 15.8051 6.94688 15.9838 6.93821C16.1625 6.92977 16.3252 6.99643 16.4721 7.13821C16.6192 7.28532 16.6928 7.44388 16.6928 7.61388C16.6928 7.7841 16.6192 7.94266 16.4721 8.08954L9.2288 15.3332H24.6671C24.8569 15.3332 25.0155 15.3969 25.1428 15.5242C25.2701 15.6515 25.3338 15.8101 25.3338 15.9999C25.3338 16.1897 25.2701 16.3482 25.1428 16.4755C25.0155 16.6029 24.8569 16.6665 24.6671 16.6665H9.2288Z" fill="white"/>
</g>
</svg>
